<svg width="24" height="24" viewBox="0 0 24 24" fill="none" xmlns="http://www.w3.org/2000/svg">
<path fill-rule="evenodd" clip-rule="evenodd" d="M18.2391 5.09578C18.4481 5.01097 18.6769 4.98172 18.9016 5.01107C19.1263 5.04043 19.3388 5.12731 19.5169 5.26267C19.6949 5.39804 19.8321 5.57694 19.9141 5.78076C19.9961 5.98458 20.02 6.20587 19.9832 6.42158L18.0648 17.6387C17.8788 18.7207 16.6473 19.3412 15.6179 18.8023C14.7568 18.3514 13.478 17.6567 12.3276 16.9318C11.7525 16.5689 9.99063 15.407 10.2072 14.5802C10.3932 13.8733 13.3536 11.2168 15.0453 9.63743C15.7092 9.01693 15.4064 8.65898 14.6224 9.22974C12.6753 10.6469 9.54911 12.8019 8.51551 13.4085C7.60372 13.9434 7.12836 14.0348 6.55997 13.9434C5.52299 13.7771 4.56129 13.5194 3.77637 13.2055C2.71571 12.7815 2.7673 11.3758 3.77552 10.9665L18.2391 5.09578Z" fill="white"/>
</svg>
