<svg width="22" height="13" viewBox="0 0 22 13" fill="none" xmlns="http://www.w3.org/2000/svg">
<path d="M20.504 12.3809H18.222C17.359 12.3809 17.099 11.6819 15.552 10.1339C14.2 8.83095 13.629 8.66895 13.287 8.66895C12.814 8.66895 12.685 8.79895 12.685 9.44995V11.5019C12.685 12.0569 12.505 12.3819 11.055 12.3819C9.64829 12.2874 8.28416 11.8601 7.07497 11.1351C5.86578 10.4101 4.84612 9.40821 4.1 8.21195C2.32901 6.00657 1.09641 3.41879 0.5 0.653947C0.5 0.311947 0.63 0.00194656 1.282 0.00194656H3.562C4.148 0.00194656 4.359 0.262947 4.589 0.865947C5.696 4.12395 7.585 6.95795 8.352 6.95795C8.646 6.95795 8.774 6.82795 8.774 6.09495V2.73895C8.677 1.20795 7.864 1.07895 7.864 0.524947C7.87428 0.378788 7.94114 0.242395 8.05037 0.14474C8.15961 0.0470843 8.30261 -0.00414024 8.449 0.00194656H12.033C12.523 0.00194656 12.685 0.245946 12.685 0.831946V5.36195C12.685 5.85095 12.895 6.01295 13.043 6.01295C13.337 6.01295 13.563 5.85095 14.102 5.31295C15.2569 3.9036 16.2008 2.33386 16.904 0.652947C16.9756 0.45091 17.1116 0.277938 17.2909 0.160535C17.4703 0.0431326 17.6832 -0.0122246 17.897 0.00294649H20.178C20.862 0.00294649 21.007 0.344947 20.862 0.832947C20.0321 2.69124 19.0056 4.45531 17.8 6.09495C17.554 6.46995 17.456 6.66495 17.8 7.10495C18.026 7.44695 18.826 8.11495 19.363 8.74995C20.145 9.52995 20.794 10.4319 21.285 11.4199C21.481 12.0559 21.155 12.3809 20.504 12.3809Z" fill="white"/>
</svg>
